<svg width="16" height="16" viewBox="0 0 16 16" fill="none" xmlns="http://www.w3.org/2000/svg">
<path d="M15.8443 6.43317H15.1999V6.39997H7.99996V9.59995H12.5211C11.8615 11.4627 10.0891 12.7999 7.99996 12.7999C5.34917 12.7999 3.19998 10.6507 3.19998 7.99996C3.19998 5.34917 5.34917 3.19998 7.99996 3.19998C9.22355 3.19998 10.3367 3.66158 11.1843 4.41558L13.4471 2.15279C12.0183 0.821196 10.1071 0 7.99996 0C3.58198 0 0 3.58198 0 7.99996C0 12.4179 3.58198 15.9999 7.99996 15.9999C12.4179 15.9999 15.9999 12.4179 15.9999 7.99996C15.9999 7.46356 15.9447 6.93997 15.8443 6.43317Z" fill="#FFC107"/>
<path d="M0.922424 4.27638L3.55081 6.20397C4.26201 4.44318 5.9844 3.19998 7.99999 3.19998C9.22358 3.19998 10.3368 3.66158 11.1844 4.41558L13.4472 2.15279C12.0184 0.821196 10.1072 0 7.99999 0C4.9272 0 2.26242 1.73479 0.922424 4.27638Z" fill="#FF3D00"/>
<path d="M8.00002 16C10.0664 16 11.944 15.2092 13.3636 13.9232L10.8876 11.828C10.0574 12.4593 9.04299 12.8008 8.00002 12.8C5.91923 12.8 4.15244 11.4732 3.48684 9.62158L0.878052 11.6316C2.20205 14.2224 4.89083 16 8.00002 16Z" fill="#4CAF50"/>
<path d="M15.8444 6.43335H15.2V6.40015H8V9.60013H12.5212C12.2057 10.4867 11.6373 11.2614 10.8864 11.8285L10.8876 11.8277L13.3636 13.9229C13.1884 14.0821 16 12.0001 16 8.00014C16 7.46374 15.9448 6.94014 15.8444 6.43335Z" fill="#1976D2"/>
</svg>
